<svg width="31" height="31" viewBox="0 0 31 31" fill="none" xmlns="http://www.w3.org/2000/svg">
<path d="M17.4862 19.8085C18.4959 19.5773 19.4596 19.1781 20.337 18.6275C20.6463 18.4187 20.8622 18.0978 20.9392 17.7327C21.0161 17.3675 20.948 16.9867 20.7492 16.6709C20.5504 16.3551 20.2365 16.129 19.874 16.0405C19.5115 15.9519 19.1288 16.0079 18.8068 16.1965C17.8161 16.815 16.6717 17.1429 15.5038 17.1429C14.336 17.1429 13.1916 16.815 12.2009 16.1965C11.8793 15.9937 11.4904 15.9267 11.1195 16.0101C10.7485 16.0934 10.4257 16.3204 10.2218 16.6413V16.6442C10.121 16.8036 10.0527 16.9812 10.0208 17.167C9.98878 17.3528 9.99379 17.5431 10.0355 17.7269C10.0772 17.9108 10.1548 18.0846 10.2638 18.2384C10.3728 18.3923 10.5111 18.523 10.6707 18.6233L10.6731 18.6263C11.5482 19.177 12.5103 19.5755 13.5185 19.805L10.7752 22.5477C10.5066 22.8113 10.3535 23.1707 10.3495 23.547C10.3455 23.9234 10.4909 24.286 10.7538 24.5553L10.7782 24.5796C11.0507 24.8605 11.4189 25 11.787 25C12.1552 25 12.5227 24.8605 12.7947 24.5796L15.5041 21.8856L18.1976 24.5832C18.77 25.13 19.6791 25.1176 20.2301 24.5458C20.4887 24.2781 20.6332 23.9204 20.6332 23.5482C20.6332 23.176 20.4887 22.8183 20.2301 22.5506L17.4862 19.8085ZM15.5035 15.807C16.8037 15.8062 18.0504 15.2895 18.97 14.3704C19.8895 13.4513 20.4068 12.2048 20.4082 10.9047C20.4082 8.20176 18.2065 6 15.5035 6C12.8006 6 10.5989 8.20176 10.5989 10.9047C10.6003 12.2051 11.1175 13.4519 12.0369 14.3715C12.9564 15.2911 14.2031 15.8084 15.5035 15.81V15.807ZM15.5035 8.8763C16.0414 8.87662 16.5571 9.09042 16.9375 9.47075C17.3178 9.85108 17.5316 10.3668 17.5319 10.9047C17.5318 11.443 17.3181 11.9592 16.9379 12.3403C16.5577 12.7213 16.0418 12.936 15.5035 12.9372C14.965 12.9358 14.449 12.7212 14.0683 12.3403C13.6876 11.9594 13.4733 11.4432 13.4722 10.9047C13.4741 10.3665 13.6887 9.85092 14.0692 9.47038C14.4498 9.08983 14.9654 8.87521 15.5035 8.87334V8.8763Z" fill="#4A4949"/>
</svg>
