<svg width="54" height="54" viewBox="0 0 54 54" fill="none" xmlns="http://www.w3.org/2000/svg">
<path d="M6.86631 34.4561C6.34948 35.2483 6.45831 36.2942 7.12715 36.9631L17.0367 46.8726C17.7056 47.5415 18.7516 47.6503 19.5438 47.1335L21.2487 46.0211C22.3125 45.3271 22.4682 43.8301 21.5701 42.9319L11.0679 32.4297C10.1697 31.5315 8.67264 31.6873 7.9786 32.7511L6.86631 34.4561Z" fill="#000000"/>
<path d="M19.3778 13.7594C20.6711 12.4662 19.6935 10.2589 17.8667 10.3475L13.8969 10.5401C13.4005 10.5642 12.9309 10.7722 12.5796 11.1235L4.9857 18.7174C3.92612 19.777 4.36511 21.5825 5.79291 22.0373L8.6576 22.9498C9.37023 23.1767 10.15 22.9872 10.6788 22.4583L19.3778 13.7594Z" fill="#000000"/>
<path d="M31.9625 48.2069C32.4173 49.6347 34.2228 50.0737 35.2823 49.0141L42.8762 41.4202C43.2276 41.0689 43.4356 40.5993 43.4596 40.1029L43.6522 36.1331C43.7408 34.3063 41.5336 33.3287 40.2403 34.622L31.5414 43.321C31.0126 43.8498 30.823 44.6296 31.05 45.3422L31.9625 48.2069Z" fill="#000000"/>
<path d="M1.23013 43.0527C0.550749 42.3733 0.550728 41.2719 1.23008 40.5925L2.713 39.1095C3.39236 38.4301 4.49384 38.4301 5.17322 39.1095V39.1095C5.85258 39.7889 5.85258 40.8903 5.17322 41.5697L3.69028 43.0527C3.01093 43.732 1.90949 43.732 1.23013 43.0527V43.0527Z" fill="#000000"/>
<path d="M13.4066 52.7698C12.7273 53.4492 11.6258 53.4492 10.9464 52.7699V52.7699C10.267 52.0905 10.267 50.989 10.9464 50.3097L12.4293 48.8267C13.1087 48.1473 14.2102 48.1473 14.8895 48.8267V48.8267C15.5689 49.506 15.5689 50.6075 14.8896 51.2869L13.4066 52.7698Z" fill="#000000"/>
<path d="M4.13197 49.694C3.45259 49.0147 3.45259 47.9132 4.13196 47.2338L7.48474 43.8811C8.16411 43.2017 9.26559 43.2017 9.94496 43.881V43.881C10.6243 44.5604 10.6243 45.6619 9.94496 46.3413L6.59218 49.694C5.91281 50.3734 4.81134 50.3734 4.13197 49.694V49.694Z" fill="#000000"/>
<path d="M42.3244 13.415C43.2852 13.415 44.064 12.6362 44.064 11.6754C44.064 10.7146 43.2852 9.93573 42.3244 9.93573C41.3636 9.93573 40.5847 10.7146 40.5847 11.6754C40.5847 12.6362 41.3636 13.415 42.3244 13.415Z" fill="#000000"/>
<path d="M53.0648 2.08703C52.8875 1.54066 52.4593 1.11244 51.913 0.935201C45.2845 -1.21502 37.7153 0.342626 32.4498 5.60804L12.2226 25.8352C11.4415 26.6163 11.4415 27.8826 12.2226 28.6637L25.3363 41.7773C26.1174 42.5584 27.3837 42.5584 28.1647 41.7773L48.3919 21.5501C53.6574 16.2847 55.2149 8.71547 53.0648 2.08703ZM46.0149 15.3658C43.9767 17.4038 40.6723 17.4038 38.6341 15.3658C36.5959 13.3276 36.5959 10.0232 38.6341 7.98499C40.6723 5.94681 43.9767 5.94681 46.0149 7.98499C48.0529 10.0232 48.0529 13.3277 46.0149 15.3658Z" fill="#000000"/>
</svg>
