<svg width="56" height="56" viewBox="0 0 56 56" fill="none" xmlns="http://www.w3.org/2000/svg">
<rect x="4" y="18" width="9" height="20" rx="2" fill="#000"/>
<rect x="17" y="18" width="9" height="20" rx="2" fill="#000"/>
<rect x="30" y="18" width="9" height="20" rx="2" fill="#000"/>
<rect x="43" y="18" width="9" height="20" rx="2" fill="#000"/>
<path fill-rule="evenodd" clip-rule="evenodd" d="M4 6C4 4.89543 4.89543 4 6 4H50C51.1046 4 52 4.89543 52 6V13.0769C52 14.1815 51.1046 15.0769 50 15.0769H6C4.89543 15.0769 4 14.1815 4 13.0769V6ZM8.61536 12.3077C10.1448 12.3077 11.3846 11.0679 11.3846 9.53846C11.3846 8.00905 10.1448 6.76923 8.61536 6.76923C7.08596 6.76923 5.84613 8.00905 5.84613 9.53846C5.84613 11.0679 7.08596 12.3077 8.61536 12.3077ZM50.1538 9.53846C50.1538 11.0679 48.914 12.3077 47.3846 12.3077C45.8552 12.3077 44.6154 11.0679 44.6154 9.53846C44.6154 8.00906 45.8552 6.76923 47.3846 6.76923C48.914 6.76923 50.1538 8.00906 50.1538 9.53846Z" fill="#000"/>
<path fill-rule="evenodd" clip-rule="evenodd" d="M4 42.9231C4 41.8185 4.89543 40.9231 6 40.9231H50C51.1046 40.9231 52 41.8185 52 42.9231V50C52 51.1046 51.1046 52 50 52H6C4.89543 52 4 51.1046 4 50V42.9231ZM8.61538 49.2308C10.1448 49.2308 11.3846 47.991 11.3846 46.4616C11.3846 44.9322 10.1448 43.6923 8.61538 43.6923C7.08598 43.6923 5.84615 44.9322 5.84615 46.4616C5.84615 47.991 7.08598 49.2308 8.61538 49.2308ZM50.1538 46.4616C50.1538 47.991 48.914 49.2308 47.3846 49.2308C45.8552 49.2308 44.6154 47.991 44.6154 46.4616C44.6154 44.9322 45.8552 43.6923 47.3846 43.6923C48.914 43.6923 50.1538 44.9322 50.1538 46.4616Z" fill="#000"/>
</svg>

