<svg width="16" height="16" viewBox="0 0 16 16" fill="none" xmlns="http://www.w3.org/2000/svg">
<path d="M15.0722 11.0995L11.7909 9.69325C11.6507 9.63351 11.495 9.62093 11.347 9.65738C11.1991 9.69384 11.067 9.77738 10.9706 9.8954L9.51744 11.6708C7.23686 10.5956 5.40151 8.76021 4.32624 6.47962L6.10166 5.02647C6.21993 4.93028 6.30363 4.79818 6.34011 4.65016C6.37659 4.50215 6.36384 4.34627 6.30381 4.20615L4.89754 0.924839C4.83165 0.773785 4.71512 0.650453 4.56804 0.576112C4.42097 0.501771 4.25256 0.48108 4.09186 0.517606L1.04493 1.22074C0.889998 1.25652 0.751766 1.34376 0.652796 1.46821C0.553827 1.59267 0.499964 1.747 0.5 1.90601C0.5 9.42079 6.59093 15.5 14.094 15.5C14.253 15.5001 14.4074 15.4463 14.532 15.3473C14.6565 15.2483 14.7438 15.11 14.7795 14.9551L15.4827 11.9081C15.519 11.7467 15.4978 11.5776 15.4229 11.43C15.348 11.2824 15.224 11.1655 15.0722 11.0995Z" fill="#000"/>
</svg>

