<svg width="24" height="24" viewBox="0 0 24 24" fill="none" xmlns="http://www.w3.org/2000/svg">
<path d="M6.3 23L6.14414 22.8784C3.82807 21.0709 2.5 18.3723 2.5 15.4737C2.5 12.8032 3.65075 10.2651 5.66667 8.46883V6.21053C5.66667 3.33741 7.9912 1 10.8485 1H13.1515C16.0088 1 18.3333 3.33741 18.3333 6.21053V8.44603C20.3492 10.2377 21.5 12.7835 21.5 15.4737C21.5 18.3723 20.1719 21.0709 17.8555 22.8784L17.7 23H6.3ZM10.5606 3.89474C9.60831 3.89474 8.83333 4.67401 8.83333 5.63158C8.83333 6.58915 9.60831 7.36842 10.5606 7.36842H13.4394C14.3917 7.36842 15.1667 6.58915 15.1667 5.63158C15.1667 4.67401 14.3917 3.89474 13.4394 3.89474H10.5606Z" fill="#EC1B22"/>
</svg>
