<svg width="18" height="18" viewBox="0 0 18 18" fill="none" xmlns="http://www.w3.org/2000/svg">
<path d="M15.6235 4.89522L14.256 4.88808C15.4631 4.13963 16.0017 2.68941 15.4659 1.49744C15.0552 0.583763 14.0918 0 13.0707 0C12.6377 0 12.1943 0.10497 11.7781 0.334301C10.8617 0.839161 10.154 1.54739 9.61202 2.26742C9.60248 2.28007 9.59283 2.2924 9.58336 2.30501C9.50031 2.41659 9.42171 2.52774 9.34664 2.63917C9.31622 2.68375 9.28551 2.72767 9.25558 2.77323C9.22318 2.82305 9.19352 2.87188 9.16275 2.92131C9.10745 3.00857 9.05129 3.09394 8.99776 3.18436C8.42205 2.19084 7.53097 1.05539 6.22188 0.334266C5.80577 0.10497 5.3624 0 4.92937 0C3.9082 0 2.94486 0.583763 2.5342 1.49744C2.08792 2.49015 2.38854 3.66112 3.19827 4.4576C3.35979 4.61913 3.54077 4.76702 3.74235 4.89522H0.75V8.64623C0.75 8.72183 0.810499 8.78303 0.885082 8.78303H7.96976V4.9203H10.0303V8.783H17.115C17.1896 8.783 17.25 8.7218 17.25 8.6462V4.89522H15.6235ZM6.9767 3.95094C6.14868 3.95094 5.41315 3.80551 4.79061 3.51856C4.47555 3.37337 4.22343 3.12499 4.09886 2.8372C4.04235 2.7067 3.96395 2.45133 4.07371 2.20707C4.20237 1.92079 4.56228 1.71303 4.92951 1.71303C5.09904 1.71303 5.26184 1.75543 5.41353 1.83901C6.21792 2.28211 6.82458 2.95647 7.26701 3.6157C7.33476 3.71877 7.40116 3.82455 7.46579 3.93433C7.30802 3.94476 7.14452 3.95094 6.9767 3.95094ZM13.9012 2.8372C13.7766 3.12499 13.5244 3.37337 13.2094 3.51856C12.5869 3.80551 11.8514 3.95094 11.0233 3.95094C10.8749 3.95094 10.7315 3.94462 10.5908 3.93626C10.5713 3.93408 10.5516 3.93338 10.532 3.93064C10.9851 3.17808 11.6533 2.35307 12.5865 1.83901C12.7382 1.75543 12.9011 1.71303 13.0706 1.71303C13.4378 1.71303 13.7976 1.92079 13.9263 2.20707C14.0362 2.4513 13.9577 2.7067 13.9012 2.8372Z" fill="#000"/>
<path d="M2.01132 15.9938L2.01132 16.0319C2.01127 17.1167 2.89452 17.9941 3.97928 17.9868H7.96966V10.5881H2.01132C2.01132 10.5881 2.01132 14.8931 2.01132 15.9938Z" fill="#000"/>
<path d="M10.0302 17.9868C10.0302 17.9868 12.9338 17.9868 14.0206 17.9868C15.1096 17.9794 15.9885 17.0828 15.9885 15.9938C15.9885 14.8931 15.9885 10.5881 15.9885 10.5881H10.0302V17.9868Z" fill="#000"/>
</svg>
